<?xml version="1.0" standalone="no"?>
<!DOCTYPE svg PUBLIC "-//W3C//DTD SVG 20010904//EN"
 "http://www.w3.org/TR/2001/REC-SVG-20010904/DTD/svg10.dtd">
<svg version="1.0" xmlns="http://www.w3.org/2000/svg"
 width="750.000000pt" height="500.000000pt" viewBox="0 0 750.000000 500.000000"
 preserveAspectRatio="xMidYMid meet">
<metadata>
Created by potrace 1.16, written by Peter Selinger 2001-2019
</metadata>
<g transform="translate(0.000000,500.000000) scale(0.100000,-0.100000)"
fill="#000000" stroke="none">
<path d="M0 2858 c0 -1179 3 -2194 7 -2257 5 -99 8 -110 19 -90 12 24 12 23
17 -11 3 -30 4 -28 7 15 6 91 18 -103 19 -302 1 -100 4 -188 7 -197 3 -9 17
-16 30 -16 21 0 23 5 27 63 l3 62 2 -62 2 -63 770 0 770 0 1 88 c2 107 15 296
18 262 l3 -25 8 25 c8 25 8 25 9 -4 2 -59 16 -12 22 72 3 54 6 -10 7 -165 l2
-253 619 0 620 0 4 23 4 22 2 -22 1 -23 2250 0 2250 0 0 2500 0 2500 -1150 0
c-659 0 -1150 -4 -1150 -9 0 -16 -39 -19 -57 -5 -11 8 -45 13 -90 14 -71 0
-73 -1 -73 -25 0 -37 -42 -55 -70 -30 -11 10 -20 26 -20 37 0 16 -8 18 -65 18
-62 0 -65 -1 -65 -24 0 -29 -24 -56 -50 -56 -26 0 -50 27 -50 56 0 21 -5 24
-34 24 -19 0 -38 -4 -41 -10 -8 -13 -52 -13 -60 0 -3 6 -44 10 -90 10 l-83 0
5 -158 c5 -141 4 -159 -12 -172 -15 -12 -20 -12 -43 1 -22 12 -27 21 -24 50 1
18 5 89 8 157 l6 122 -195 0 c-164 0 -196 -2 -201 -15 -3 -8 -16 -15 -29 -15
-14 0 -30 7 -37 15 -9 11 -33 15 -87 15 l-75 0 7 -39 c6 -35 4 -41 -19 -56
-43 -29 -85 10 -66 61 14 35 15 34 -29 34 -25 0 -41 -5 -45 -15 -6 -18 -39
-20 -67 -4 -20 10 -20 8 -18 -142 1 -84 7 -168 12 -186 9 -29 8 -37 -11 -55
-17 -17 -25 -20 -44 -11 l-23 10 4 202 3 201 -352 0 -353 0 5 -145 c5 -137 4
-146 -14 -156 -11 -6 -27 -7 -36 -3 -9 4 -21 8 -27 8 -5 1 -9 17 -7 36 2 19 6
86 8 148 l5 112 -45 0 -46 0 0 -204 c0 -126 4 -207 10 -211 6 -4 11 28 12 87
1 59 3 74 5 41 3 -39 9 -56 23 -63 16 -8 19 -6 23 18 2 15 5 -30 6 -99 0 -69
6 -151 12 -183 12 -64 3 -86 -35 -86 -40 0 -45 16 -39 124 5 84 3 99 -8 89
-37 -35 -96 6 -78 54 5 13 9 82 9 153 l0 130 -28 -6 c-42 -9 -67 24 -56 73 5
21 8 48 6 61 -3 19 -9 22 -48 22 l-44 0 0 -184 c0 -102 5 -197 10 -212 6 -15
8 -35 4 -46 -7 -25 -44 -39 -68 -26 -17 9 -18 1 -15 -218 l4 -227 -23 -10
c-18 -8 -27 -7 -41 9 -17 18 -17 34 -7 265 9 202 13 244 24 233 7 -8 8 -14 2
-14 -5 0 -10 -5 -10 -11 0 -6 7 -9 15 -5 17 6 19 -2 5 -24 -8 -12 -10 -12 -10
-1 0 8 -2 12 -5 9 -3 -3 -3 -13 1 -22 23 -60 53 155 54 389 1 84 2 88 15 60
13 -30 13 -30 15 -5 1 23 2 23 10 5 8 -18 9 -17 9 7 l1 27 -570 1 -570 0 0
-157 c0 -175 19 -255 21 -93 l2 95 7 -72 c6 -67 20 -113 20 -65 0 26 10 52 20
52 5 0 14 -40 21 -90 6 -49 16 -90 20 -90 5 0 9 7 9 15 0 18 16 20 23 3 3 -7
7 28 8 77 2 50 6 -88 9 -305 3 -219 1 -401 -4 -407 -12 -18 -41 -16 -61 3 -13
13 -15 27 -10 65 l7 49 -30 -6 c-40 -8 -68 29 -52 70 13 35 14 456 1 456 -6 0
-13 -4 -16 -10 -11 -19 -44 -10 -61 15 -14 21 -15 31 -5 51 7 15 11 86 11 184
l0 160 -81 0 -81 0 3 -179 c2 -137 0 -183 -10 -195 -18 -22 -44 -20 -66 4 -16
18 -17 25 -7 54 7 19 12 90 12 174 l0 142 -156 0 -156 0 3 -167 c2 -93 0 -174
-4 -180 -10 -16 -49 -17 -65 -1 -6 6 -14 9 -17 6 -4 -3 -2 -147 3 -319 4 -173
7 -319 4 -326 -5 -17 -38 -26 -62 -18 -25 8 -35 46 -21 73 7 14 12 168 13 464
1 244 4 404 5 356 3 -64 8 -88 18 -92 15 -5 18 2 29 64 2 14 4 -16 3 -66 -2
-73 0 -88 10 -75 8 11 12 60 13 149 l0 132 -150 0 -150 0 1 -72 c0 -40 3 -67
6 -60 8 20 23 14 25 -10 1 -13 4 13 7 57 4 48 9 -64 13 -276 5 -196 11 -370
14 -387 5 -22 1 -35 -15 -51 -26 -26 -36 -26 -62 0 -15 15 -19 27 -13 42 5 12
10 187 11 390 l4 367 -76 0 -75 0 0 -2142z m3161 1987 c1 -22 3 -32 6 -22 2 9
9 15 14 12 5 -4 10 13 11 37 1 24 5 -47 9 -157 3 -110 9 -212 13 -227 7 -22 4
-29 -17 -43 -43 -28 -85 11 -66 60 4 11 8 119 9 240 2 146 5 207 11 180 4 -22
9 -58 10 -80z m1601 40 c-3 -37 -1 -45 12 -45 9 0 16 6 15 13 -1 6 0 19 4 27
3 8 8 22 10 30 3 8 6 -48 7 -125 1 -77 5 -203 9 -280 5 -77 6 -146 3 -153 -6
-17 -51 -27 -65 -13 -16 16 -10 591 6 591 1 0 1 -20 -1 -45z m-2786 -652 c-13
-19 -54 -16 -64 5 -5 9 -6 83 -1 172 4 85 9 214 10 285 2 119 3 124 9 55 4
-41 8 -59 9 -40 1 19 5 29 8 22 12 -30 23 6 25 81 1 45 5 -64 8 -243 3 -179 1
-331 -4 -337z m800 339 c5 -44 8 -51 20 -41 8 6 15 19 15 28 3 33 17 -46 19
-104 3 -75 10 -100 32 -101 13 -1 18 9 22 40 3 22 7 52 10 66 2 14 4 -84 5
-217 1 -238 1 -242 -20 -248 -15 -5 -28 -1 -41 13 -18 18 -19 25 -10 69 6 26
10 64 9 83 -2 32 -4 35 -32 32 -16 -1 -35 1 -40 5 -7 5 -9 89 -6 248 3 132 6
227 8 210 2 -16 6 -54 9 -83z m1348 -277 c3 -121 8 -232 12 -246 8 -37 -19
-62 -58 -53 l-30 6 7 -61 c7 -59 6 -61 -19 -73 -23 -10 -30 -9 -47 8 -18 19
-19 26 -9 110 5 49 10 154 11 234 1 89 4 133 9 115 6 -23 8 -25 9 -8 2 33 21
39 21 6 1 -50 17 -3 25 72 5 50 10 64 16 50 7 -17 8 -16 8 8 1 17 6 27 16 27
8 0 15 8 15 17 0 9 2 14 4 12 2 -2 6 -103 10 -224z m-2494 15 c8 12 10 10 10
-9 0 -45 13 -12 20 51 6 51 8 35 9 -82 2 -80 6 -226 10 -325 4 -99 6 -186 3
-193 -8 -24 -52 -26 -75 -3 -19 18 -20 24 -9 54 8 23 13 133 14 353 1 175 4
279 5 229 3 -61 7 -85 13 -75z m2662 -476 c11 -17 -21 -54 -46 -54 -42 0 -46
17 -36 145 5 66 10 180 10 253 0 112 2 131 14 120 7 -7 11 -20 8 -28 -4 -12
-3 -13 9 -2 9 8 16 43 19 95 3 45 7 -53 10 -218 3 -165 8 -305 12 -311z m706
361 c1 6 6 3 11 -4 10 -16 16 1 24 64 2 17 5 -42 6 -130 3 -170 4 -192 16
-242 6 -27 3 -34 -18 -48 -21 -13 -30 -14 -48 -5 -19 11 -21 18 -15 57 3 25 7
143 8 262 1 160 3 193 8 126 3 -49 7 -85 8 -80z m-4293 -405 c-1 -14 0 -17 2
-7 2 9 11 17 19 17 8 0 15 8 16 18 3 40 16 -123 18 -238 3 -125 15 -298 18
-248 2 19 7 26 20 24 15 -3 18 9 23 103 3 58 7 -89 9 -326 2 -238 4 -450 5
-470 0 -35 -2 -38 -31 -41 -17 -2 -35 3 -40 10 -6 8 -8 93 -5 221 l6 208 -27
-6 c-36 -8 -74 27 -62 58 5 12 10 209 13 437 3 260 7 387 11 340 4 -41 6 -86
5 -100z m2879 -519 c-15 -16 -59 -8 -67 13 -3 7 -1 58 3 112 5 55 10 164 11
244 2 80 4 122 6 94 4 -46 6 -51 23 -47 18 5 20 15 22 102 1 53 5 -39 8 -204
4 -226 3 -303 -6 -314z m-2035 439 c3 24 4 24 11 -5 l7 -30 10 35 c7 27 11
-30 16 -235 4 -148 9 -286 13 -307 5 -31 3 -38 -19 -53 -20 -13 -30 -14 -46
-6 -25 14 -35 45 -22 70 7 12 12 137 13 338 1 178 4 285 8 243 4 -41 8 -64 9
-50z m457 -386 c4 -60 9 -81 20 -81 11 0 14 19 16 81 1 45 5 -40 9 -189 3
-148 10 -282 14 -297 6 -21 2 -29 -18 -43 -44 -29 -86 9 -67 61 6 14 11 161
12 327 1 166 3 284 5 262 1 -22 5 -76 9 -121z m2382 -66 c1 12 9 22 17 22 10
0 15 10 15 32 0 17 2 29 5 26 3 -3 10 -113 14 -244 5 -132 12 -248 16 -260 10
-31 -38 -61 -73 -45 -23 11 -24 15 -18 64 3 29 7 176 8 327 1 199 4 244 8 165
3 -60 7 -100 8 -87z m-3795 -1097 c-10 -11 -19 -13 -40 -5 l-27 9 4 330 c2
283 13 554 19 460 1 -23 3 -27 11 -15 8 13 10 12 10 -2 0 -10 5 -18 10 -18 6
0 11 36 12 83 1 45 5 -123 8 -373 4 -353 2 -458 -7 -469z m3908 122 c-33 -29
-76 2 -67 48 3 16 9 126 13 246 4 120 9 210 11 200 4 -18 5 -18 23 -1 15 14
19 33 21 98 1 45 5 -67 8 -249 4 -281 3 -332 -9 -342z m-1568 321 c4 -4 8 15
8 42 2 39 3 43 8 19 4 -23 7 -15 11 35 4 41 7 -3 8 -124 1 -110 7 -205 14
-228 10 -35 9 -41 -10 -60 -18 -19 -25 -20 -48 -9 -25 11 -26 15 -20 58 3 25
7 150 8 277 1 184 3 207 7 114 3 -64 9 -120 14 -124z m-1528 -124 c12 -10 15
-9 15 8 0 12 4 23 8 26 11 6 22 -245 22 -482 0 -189 -2 -196 -59 -176 -28 10
-41 48 -22 67 7 7 12 128 13 371 1 199 4 324 5 279 3 -56 8 -85 18 -93z
m-1145 -527 c9 -15 10 -14 4 6 -4 15 -2 21 5 17 7 -4 11 19 14 71 2 49 4 21 6
-72 1 -82 6 -269 10 -415 5 -164 4 -270 -2 -277 -5 -7 -22 -13 -38 -13 -37 0
-56 32 -40 67 7 16 11 157 12 426 1 286 4 374 10 305 4 -54 13 -106 19 -115z
m796 -610 c-5 -7 -19 -13 -31 -13 -12 0 -27 6 -32 13 -12 16 -1 677 12 697 8
12 11 9 16 -15 7 -30 7 -30 8 -3 0 15 6 30 11 33 6 3 11 30 12 58 1 29 5 -130
8 -353 3 -224 1 -411 -4 -417z m1269 414 c13 -19 14 -18 23 14 8 26 10 -8 11
-136 1 -93 6 -190 12 -214 12 -55 5 -79 -28 -87 -47 -12 -49 -1 -43 296 2 151
6 246 8 211 2 -35 9 -73 17 -84z m-1005 -107 c7 10 10 11 10 3 0 -7 4 -13 9
-13 6 0 12 24 14 53 2 28 4 -51 6 -178 1 -126 6 -288 11 -360 9 -142 6 -155
-41 -155 -37 0 -56 32 -40 67 7 16 12 142 13 366 1 188 4 311 5 272 3 -48 7
-65 13 -55z m201 -394 c2 -348 1 -379 -15 -388 -12 -7 -24 -5 -40 5 -25 17
-25 19 -10 445 l6 162 24 0 c23 0 24 2 24 82 0 45 2 79 4 77 3 -2 6 -175 7
-383z m1715 66 c3 -29 10 -50 15 -47 5 4 10 -4 11 -17 0 -13 4 -3 8 22 5 30 8
-10 9 -115 3 -166 3 -176 16 -237 6 -32 4 -38 -18 -53 -21 -13 -30 -14 -48 -5
-19 11 -21 18 -15 57 3 25 7 157 8 292 1 135 3 226 5 201 1 -25 5 -69 9 -98z
m1391 -507 c11 -19 12 -18 18 10 4 17 8 35 9 40 2 6 6 -93 10 -220 4 -126 9
-249 12 -271 3 -30 0 -46 -11 -58 -20 -19 -49 -21 -61 -3 -5 6 -7 167 -4 357
2 192 7 305 10 255 3 -49 10 -99 17 -110z m-929 13 c3 21 22 13 24 -10 0 -13
4 -3 8 22 5 30 8 -9 10 -117 4 -188 5 -203 14 -270 5 -40 3 -55 -9 -67 -20
-19 -49 -21 -61 -3 -5 6 -7 147 -4 317 3 205 7 274 10 210 4 -52 7 -89 8 -82z
m1156 -257 c11 -9 15 -4 21 21 6 23 11 -24 16 -147 4 -99 10 -214 13 -256 5
-68 3 -79 -14 -94 -17 -15 -24 -16 -46 -6 -25 11 -26 15 -20 58 3 25 7 181 8
347 1 166 4 253 5 194 3 -73 8 -110 17 -117z m-926 -29 c1 10 8 15 16 12 8 -3
16 2 19 13 3 10 5 -25 6 -77 1 -52 6 -158 10 -235 7 -119 6 -143 -7 -157 -18
-21 -46 -23 -58 -5 -5 6 -7 159 -4 342 3 241 6 298 10 210 3 -66 7 -112 8
-103z"/>
</g>
</svg>
